# xmcd CD database file
#
# Track frame offsets:
#	180
#	20587
#	36467
#	55054
#	75406
#	97357
#	115607
#	134891
#	152793
#	175422
#	202007
#	223096
#
# Disc length: 3420 seconds
#
# Revision: 2
# Processed by: cddbd v1.5.2PL0 Copyright (c) Steve Scherf et al.
# Submitted via: CDex 1.70beta2
#
DISCID=b30d5a0c
DTITLE=Doctor Bob - The Doctor Is In
DYEAR=1995
DGENRE=Blues
TTITLE0=Make Believe
TTITLE1=There Must be Something Wrong With Me
TTITLE2=All I Want
TTITLE3=Just Who I Am
TTITLE4=Close Your Eyes
TTITLE5=The Gospel According To Dr Bob
TTITLE6=The Ant Song
TTITLE7=Sam's Blues
TTITLE8=Sign Of The Times
TTITLE9=Shine A Little Light
TTITLE10=Heartbeat By Heartbeat
TTITLE11=Lighthouse Keeper's Blues
EXTD=YEAR: 1995
EXTT0=
EXTT1=
EXTT2=
EXTT3=
EXTT4=
EXTT5=
EXTT6=
EXTT7=
EXTT8=
EXTT9=
EXTT10=
EXTT11=
PLAYORDER=
